<svg width="50" height="50" viewBox="0 0 50 50" fill="none" xmlns="http://www.w3.org/2000/svg">
<circle cx="25" cy="25" r="25" fill="#D2EFF3"/>
<mask id="mask0_2_199" style="mask-type:alpha" maskUnits="userSpaceOnUse" x="0" y="0" width="50" height="50">
<circle cx="25" cy="25" r="25" fill="#FFEDEF"/>
</mask>
<g mask="url(#mask0_2_199)">
<g clip-path="url(#clip0_2_199)">
<path d="M32.1053 47.6975C30.2105 45.0659 28.7281 39.9782 28.5526 37.4343L19.5395 33.5527L15.7895 47.6975H32.1053Z" fill="#F9C9B6" stroke="black" stroke-width="0.526316"/>
<mask id="mask1_2_199" style="mask-type:alpha" maskUnits="userSpaceOnUse" x="15" y="33" width="18" height="17">
<path d="M32.1053 49.0132C30.2105 46.3817 28.7281 39.9782 28.5526 37.4343L19.5395 33.5527L15.7895 49.0132H32.1053Z" fill="#AC6651"/>
</mask>
<g mask="url(#mask1_2_199)">
<g style="mix-blend-mode:multiply">
<ellipse cx="28.1579" cy="33.2895" rx="7.76316" ry="7.10526" fill="black"/>
</g>
</g>
<mask id="path-6-inside-1_2_199" fill="white">
<path d="M21.5238 8.83053C26.9938 7.51996 32.4885 10.8729 33.8333 16.3256H33.8363L36.0716 25.6567L36.0667 25.6577C37.2625 31.0879 33.8943 36.4963 28.4642 37.7973C23.0339 39.0982 17.5805 35.8031 16.1859 30.4204L16.181 30.4223L13.9456 21.0913L13.9466 21.0903C12.6744 15.6203 16.054 10.1413 21.5238 8.83053Z"/>
</mask>
<path d="M21.5238 8.83053C26.9938 7.51996 32.4885 10.8729 33.8333 16.3256H33.8363L36.0716 25.6567L36.0667 25.6577C37.2625 31.0879 33.8943 36.4963 28.4642 37.7973C23.0339 39.0982 17.5805 35.8031 16.1859 30.4204L16.181 30.4223L13.9456 21.0913L13.9466 21.0903C12.6744 15.6203 16.054 10.1413 21.5238 8.83053Z" fill="#F9C9B6"/>
<path d="M21.5238 8.83053L21.4011 8.3187L21.4011 8.3187L21.5238 8.83053ZM33.8333 16.3256L33.3223 16.4517L33.421 16.852H33.8333V16.3256ZM33.8363 16.3256L34.3481 16.203L34.2514 15.7993H33.8363V16.3256ZM36.0716 25.6567L36.1748 26.1728L36.7108 26.0656L36.5834 25.5341L36.0716 25.6567ZM36.0667 25.6577L35.9635 25.1416L35.4373 25.2468L35.5527 25.7709L36.0667 25.6577ZM28.4642 37.7973L28.5868 38.3092L28.5868 38.3092L28.4642 37.7973ZM16.1859 30.4204L16.6954 30.2884L16.5454 29.7097L15.9904 29.9317L16.1859 30.4204ZM16.181 30.4223L15.6691 30.5449L15.811 31.1372L16.3765 30.911L16.181 30.4223ZM13.9456 21.0913L13.5735 20.7191L13.3652 20.9274L13.4338 21.2139L13.9456 21.0913ZM13.9466 21.0903L14.3188 21.4625L14.5255 21.2558L14.4592 20.9711L13.9466 21.0903ZM21.5238 8.83053L21.6464 9.34236C26.8348 8.09927 32.0467 11.2795 33.3223 16.4517L33.8333 16.3256L34.3443 16.1996C32.9303 10.4662 27.1528 6.94065 21.4011 8.3187L21.5238 8.83053ZM33.8333 16.3256V16.852H33.8363V16.3256V15.7993H33.8333V16.3256ZM33.8363 16.3256L33.3244 16.4483L35.5598 25.7793L36.0716 25.6567L36.5834 25.5341L34.3481 16.203L33.8363 16.3256ZM36.0716 25.6567L35.9684 25.1406L35.9635 25.1416L36.0667 25.6577L36.1699 26.1738L36.1748 26.1728L36.0716 25.6567ZM36.0667 25.6577L35.5527 25.7709C36.6869 30.9216 33.492 36.0515 28.3416 37.2855L28.4642 37.7973L28.5868 38.3092C34.2967 36.9411 37.838 31.2542 36.5807 25.5445L36.0667 25.6577ZM28.4642 37.7973L28.3416 37.2855C23.191 38.5194 18.0182 35.3941 16.6954 30.2884L16.1859 30.4204L15.6764 30.5524C17.1428 36.2122 22.8769 39.6771 28.5868 38.3092L28.4642 37.7973ZM16.1859 30.4204L15.9904 29.9317L15.9855 29.9337L16.181 30.4223L16.3765 30.911L16.3813 30.909L16.1859 30.4204ZM16.181 30.4223L16.6928 30.2997L14.4575 20.9687L13.9456 21.0913L13.4338 21.2139L15.6691 30.5449L16.181 30.4223ZM13.9456 21.0913L14.3178 21.4634L14.3188 21.4625L13.9466 21.0903L13.5744 20.7181L13.5735 20.7191L13.9456 21.0913ZM13.9466 21.0903L14.4592 20.9711C13.2525 15.7826 16.4582 10.5856 21.6464 9.34235L21.5238 8.83053L21.4011 8.3187C15.6498 9.69692 12.0963 15.4579 13.434 21.2095L13.9466 21.0903Z" fill="black" mask="url(#path-6-inside-1_2_199)"/>
<path d="M20.3947 33.4606C20.3947 33.5332 20.3358 33.5922 20.2632 33.5922C20.1905 33.5922 20.1316 33.5332 20.1316 33.4606C20.1316 33.3879 20.1905 33.329 20.2632 33.329C20.3358 33.329 20.3947 33.3879 20.3947 33.4606Z" fill="black"/>
<path d="M27.2368 34.3816C27.2368 34.4543 27.1779 34.5132 27.1053 34.5132C27.0326 34.5132 26.9737 34.4543 26.9737 34.3816C26.9737 34.309 27.0326 34.25 27.1053 34.25C27.1779 34.25 27.2368 34.309 27.2368 34.3816Z" fill="black"/>
<path d="M26.7105 35.3027C26.7105 35.3753 26.6516 35.4343 26.579 35.4343C26.5063 35.4343 26.4474 35.3753 26.4474 35.3027C26.4474 35.23 26.5063 35.1711 26.579 35.1711C26.6516 35.1711 26.7105 35.23 26.7105 35.3027Z" fill="black"/>
<path d="M29.3421 35.0395C29.3421 35.1122 29.2832 35.1711 29.2105 35.1711C29.1379 35.1711 29.079 35.1122 29.079 35.0395C29.079 34.9669 29.1379 34.9079 29.2105 34.9079C29.2832 34.9079 29.3421 34.9669 29.3421 35.0395Z" fill="black"/>
<path d="M29.4737 33.7237C29.4737 33.7964 29.4148 33.8553 29.3421 33.8553C29.2694 33.8553 29.2105 33.7964 29.2105 33.7237C29.2105 33.6511 29.2694 33.5922 29.3421 33.5922C29.4148 33.5922 29.4737 33.6511 29.4737 33.7237Z" fill="black"/>
<path d="M32.1053 34.3816C32.1053 34.4543 32.0464 34.5132 31.9737 34.5132C31.901 34.5132 31.8421 34.4543 31.8421 34.3816C31.8421 34.309 31.901 34.25 31.9737 34.25C32.0464 34.25 32.1053 34.309 32.1053 34.3816Z" fill="black"/>
<path d="M33.4211 32.5395C33.4211 32.6122 33.3621 32.6711 33.2895 32.6711C33.2168 32.6711 33.1579 32.6122 33.1579 32.5395C33.1579 32.4669 33.2168 32.4079 33.2895 32.4079C33.3621 32.4079 33.4211 32.4669 33.4211 32.5395Z" fill="black"/>
<path d="M19.079 30.6974C19.079 30.7701 19.02 30.829 18.9474 30.829C18.8747 30.829 18.8158 30.7701 18.8158 30.6974C18.8158 30.6247 18.8747 30.5658 18.9474 30.5658C19.02 30.5658 19.079 30.6247 19.079 30.6974Z" fill="black"/>
<path d="M23.4211 32.8027C23.4211 32.8753 23.3621 32.9343 23.2895 32.9343C23.2168 32.9343 23.1579 32.8753 23.1579 32.8027C23.1579 32.73 23.2168 32.6711 23.2895 32.6711C23.3621 32.6711 23.4211 32.73 23.4211 32.8027Z" fill="black"/>
<path d="M23.0263 35.4343C23.0263 35.5069 22.9674 35.5658 22.8947 35.5658C22.8221 35.5658 22.7632 35.5069 22.7632 35.4343C22.7632 35.3616 22.8221 35.3027 22.8947 35.3027C22.9674 35.3027 23.0263 35.3616 23.0263 35.4343Z" fill="black"/>
<path d="M25.3947 35.9606C25.3947 36.0332 25.3358 36.0922 25.2632 36.0922C25.1905 36.0922 25.1316 36.0332 25.1316 35.9606C25.1316 35.8879 25.1905 35.829 25.2632 35.829C25.3358 35.829 25.3947 35.8879 25.3947 35.9606Z" fill="black"/>
<path d="M29.8684 32.5395C29.8684 32.6122 29.8095 32.6711 29.7368 32.6711C29.6642 32.6711 29.6053 32.6122 29.6053 32.5395C29.6053 32.4669 29.6642 32.4079 29.7368 32.4079C29.8095 32.4079 29.8684 32.4669 29.8684 32.5395Z" fill="black"/>
<path d="M31.7105 33.0658C31.7105 33.1385 31.6516 33.1974 31.579 33.1974C31.5063 33.1974 31.4474 33.1385 31.4474 33.0658C31.4474 32.9932 31.5063 32.9343 31.579 32.9343C31.6516 32.9343 31.7105 32.9932 31.7105 33.0658Z" fill="black"/>
<path d="M30.6579 35.3027C30.6579 35.3753 30.599 35.4343 30.5263 35.4343C30.4537 35.4343 30.3947 35.3753 30.3947 35.3027C30.3947 35.23 30.4537 35.1711 30.5263 35.1711C30.599 35.1711 30.6579 35.23 30.6579 35.3027Z" fill="black"/>
<path d="M32.5 31.2237C32.5 31.2964 32.4411 31.3553 32.3684 31.3553C32.2958 31.3553 32.2368 31.2964 32.2368 31.2237C32.2368 31.1511 32.2958 31.0922 32.3684 31.0922C32.4411 31.0922 32.5 31.1511 32.5 31.2237Z" fill="black"/>
<path d="M20.2632 31.4869C20.2632 31.5596 20.2043 31.6185 20.1316 31.6185C20.0589 31.6185 20 31.5596 20 31.4869C20 31.4142 20.0589 31.3553 20.1316 31.3553C20.2043 31.3553 20.2632 31.4142 20.2632 31.4869Z" fill="black"/>
<path d="M23.4211 31.4869C23.4211 31.5596 23.3621 31.6185 23.2895 31.6185C23.2168 31.6185 23.1579 31.5596 23.1579 31.4869C23.1579 31.4142 23.2168 31.3553 23.2895 31.3553C23.3621 31.3553 23.4211 31.4142 23.4211 31.4869Z" fill="black"/>
<path d="M23.4211 29.1185C23.4211 29.1911 23.3621 29.25 23.2895 29.25C23.2168 29.25 23.1579 29.1911 23.1579 29.1185C23.1579 29.0458 23.2168 28.9869 23.2895 28.9869C23.3621 28.9869 23.4211 29.0458 23.4211 29.1185Z" fill="black"/>
<path d="M23.9474 36.2237C23.9474 36.2964 23.8885 36.3553 23.8158 36.3553C23.7431 36.3553 23.6842 36.2964 23.6842 36.2237C23.6842 36.1511 23.7431 36.0922 23.8158 36.0922C23.8885 36.0922 23.9474 36.1511 23.9474 36.2237Z" fill="black"/>
<path d="M27.5 36.2237C27.5 36.2964 27.4411 36.3553 27.3684 36.3553C27.2958 36.3553 27.2368 36.2964 27.2368 36.2237C27.2368 36.1511 27.2958 36.0922 27.3684 36.0922C27.4411 36.0922 27.5 36.1511 27.5 36.2237Z" fill="black"/>
<path d="M28.9474 36.2237C28.9474 36.2964 28.8885 36.3553 28.8158 36.3553C28.7431 36.3553 28.6842 36.2964 28.6842 36.2237C28.6842 36.1511 28.7431 36.0922 28.8158 36.0922C28.8885 36.0922 28.9474 36.1511 28.9474 36.2237Z" fill="black"/>
<path d="M31.1842 31.4869C31.1842 31.5596 31.1253 31.6185 31.0526 31.6185C30.98 31.6185 30.9211 31.5596 30.9211 31.4869C30.9211 31.4142 30.98 31.3553 31.0526 31.3553C31.1253 31.3553 31.1842 31.4142 31.1842 31.4869Z" fill="black"/>
<path d="M31.1842 29.1185C31.1842 29.1911 31.1253 29.25 31.0526 29.25C30.98 29.25 30.9211 29.1911 30.9211 29.1185C30.9211 29.0458 30.98 28.9869 31.0526 28.9869C31.1253 28.9869 31.1842 29.0458 31.1842 29.1185Z" fill="black"/>
<path d="M33.8158 30.829C33.8158 30.9017 33.7569 30.9606 33.6842 30.9606C33.6115 30.9606 33.5526 30.9017 33.5526 30.829C33.5526 30.7563 33.6115 30.6974 33.6842 30.6974C33.7569 30.6974 33.8158 30.7563 33.8158 30.829Z" fill="black"/>
<path d="M20.6579 29.7764C20.6579 29.849 20.599 29.9079 20.5263 29.9079C20.4537 29.9079 20.3947 29.849 20.3947 29.7764C20.3947 29.7037 20.4537 29.6448 20.5263 29.6448C20.599 29.6448 20.6579 29.7037 20.6579 29.7764Z" fill="black"/>
<path d="M21.9737 34.3816C21.9737 34.4543 21.9148 34.5132 21.8421 34.5132C21.7694 34.5132 21.7105 34.4543 21.7105 34.3816C21.7105 34.309 21.7694 34.25 21.8421 34.25C21.9148 34.25 21.9737 34.309 21.9737 34.3816Z" fill="black"/>
<path d="M21.4474 35.3027C21.4474 35.3753 21.3885 35.4343 21.3158 35.4343C21.2431 35.4343 21.1842 35.3753 21.1842 35.3027C21.1842 35.23 21.2431 35.1711 21.3158 35.1711C21.3885 35.1711 21.4474 35.23 21.4474 35.3027Z" fill="black"/>
<path d="M26.7105 32.6711C26.7105 32.7438 26.6516 32.8027 26.579 32.8027C26.5063 32.8027 26.4474 32.7438 26.4474 32.6711C26.4474 32.5984 26.5063 32.5395 26.579 32.5395C26.6516 32.5395 26.7105 32.5984 26.7105 32.6711Z" fill="black"/>
<path d="M28.2895 32.9343C28.2895 33.0069 28.2306 33.0658 28.1579 33.0658C28.0852 33.0658 28.0263 33.0069 28.0263 32.9343C28.0263 32.8616 28.0852 32.8027 28.1579 32.8027C28.2306 32.8027 28.2895 32.8616 28.2895 32.9343Z" fill="black"/>
<path d="M26.4474 36.8816C26.4474 36.9543 26.3885 37.0132 26.3158 37.0132C26.2431 37.0132 26.1842 36.9543 26.1842 36.8816C26.1842 36.809 26.2431 36.75 26.3158 36.75C26.3885 36.75 26.4474 36.809 26.4474 36.8816Z" fill="black"/>
<path d="M29.4737 30.1711C29.4737 30.2438 29.4148 30.3027 29.3421 30.3027C29.2694 30.3027 29.2105 30.2438 29.2105 30.1711C29.2105 30.0984 29.2694 30.0395 29.3421 30.0395C29.4148 30.0395 29.4737 30.0984 29.4737 30.1711Z" fill="black"/>
<path d="M29.4737 27.8027C29.4737 27.8753 29.4148 27.9343 29.3421 27.9343C29.2694 27.9343 29.2105 27.8753 29.2105 27.8027C29.2105 27.73 29.2694 27.6711 29.3421 27.6711C29.4148 27.6711 29.4737 27.73 29.4737 27.8027Z" fill="black"/>
<path d="M32.6316 29.7764C32.6316 29.849 32.5727 29.9079 32.5 29.9079C32.4273 29.9079 32.3684 29.849 32.3684 29.7764C32.3684 29.7037 32.4273 29.6448 32.5 29.6448C32.5727 29.6448 32.6316 29.7037 32.6316 29.7764Z" fill="black"/>
<path d="M33.5526 28.4606C33.5526 28.5332 33.4937 28.5922 33.4211 28.5922C33.3484 28.5922 33.2895 28.5332 33.2895 28.4606C33.2895 28.3879 33.3484 28.329 33.4211 28.329C33.4937 28.329 33.5526 28.3879 33.5526 28.4606Z" fill="black"/>
<path d="M21.8421 30.9606C21.8421 31.0332 21.7832 31.0922 21.7105 31.0922C21.6379 31.0922 21.579 31.0332 21.579 30.9606C21.579 30.8879 21.6379 30.829 21.7105 30.829C21.7832 30.829 21.8421 30.8879 21.8421 30.9606Z" fill="black"/>
<path d="M21.8421 32.4079C21.8421 32.4806 21.7832 32.5395 21.7105 32.5395C21.6379 32.5395 21.579 32.4806 21.579 32.4079C21.579 32.3353 21.6379 32.2764 21.7105 32.2764C21.7832 32.2764 21.8421 32.3353 21.8421 32.4079Z" fill="black"/>
<path d="M24.6053 30.4343C24.6053 30.5069 24.5464 30.5658 24.4737 30.5658C24.401 30.5658 24.3421 30.5069 24.3421 30.4343C24.3421 30.3616 24.401 30.3027 24.4737 30.3027C24.5464 30.3027 24.6053 30.3616 24.6053 30.4343Z" fill="black"/>
<path d="M24.6053 28.0658C24.6053 28.1385 24.5464 28.1974 24.4737 28.1974C24.401 28.1974 24.3421 28.1385 24.3421 28.0658C24.3421 27.9932 24.401 27.9343 24.4737 27.9343C24.5464 27.9343 24.6053 27.9932 24.6053 28.0658Z" fill="black"/>
<path d="M26.1842 29.9079C26.1842 29.9806 26.1253 30.0395 26.0526 30.0395C25.98 30.0395 25.9211 29.9806 25.9211 29.9079C25.9211 29.8353 25.98 29.7764 26.0526 29.7764C26.1253 29.7764 26.1842 29.8353 26.1842 29.9079Z" fill="black"/>
<path d="M27.7632 29.1185C27.7632 29.1911 27.7043 29.25 27.6316 29.25C27.5589 29.25 27.5 29.1911 27.5 29.1185C27.5 29.0458 27.5589 28.9869 27.6316 28.9869C27.7043 28.9869 27.7632 29.0458 27.7632 29.1185Z" fill="black"/>
<path d="M29.4737 29.1185C29.4737 29.1911 29.4148 29.25 29.3421 29.25C29.2694 29.25 29.2105 29.1911 29.2105 29.1185C29.2105 29.0458 29.2694 28.9869 29.3421 28.9869C29.4148 28.9869 29.4737 29.0458 29.4737 29.1185Z" fill="black"/>
<path d="M31.1842 29.1185C31.1842 29.1911 31.1253 29.25 31.0526 29.25C30.98 29.25 30.9211 29.1911 30.9211 29.1185C30.9211 29.0458 30.98 28.9869 31.0526 28.9869C31.1253 28.9869 31.1842 29.0458 31.1842 29.1185Z" fill="black"/>
<path d="M34.6053 29.1185C34.6053 29.1911 34.5464 29.25 34.4737 29.25C34.401 29.25 34.3421 29.1911 34.3421 29.1185C34.3421 29.0458 34.401 28.9869 34.4737 28.9869C34.5464 28.9869 34.6053 29.0458 34.6053 29.1185Z" fill="black"/>
<path d="M24.3421 34.3816C24.3421 34.4543 24.2832 34.5132 24.2105 34.5132C24.1379 34.5132 24.079 34.4543 24.079 34.3816C24.079 34.309 24.1379 34.25 24.2105 34.25C24.2832 34.25 24.3421 34.309 24.3421 34.3816Z" fill="black"/>
<path d="M25.7895 33.5922C25.7895 33.6648 25.7306 33.7237 25.6579 33.7237C25.5852 33.7237 25.5263 33.6648 25.5263 33.5922C25.5263 33.5195 25.5852 33.4606 25.6579 33.4606C25.7306 33.4606 25.7895 33.5195 25.7895 33.5922Z" fill="black"/>
<path d="M25.2632 32.5395C25.2632 32.6122 25.2043 32.6711 25.1316 32.6711C25.0589 32.6711 25 32.6122 25 32.5395C25 32.4669 25.0589 32.4079 25.1316 32.4079C25.2043 32.4079 25.2632 32.4669 25.2632 32.5395Z" fill="black"/>
<path d="M28.4211 31.3553C28.4211 31.428 28.3621 31.4869 28.2895 31.4869C28.2168 31.4869 28.1579 31.428 28.1579 31.3553C28.1579 31.2826 28.2168 31.2237 28.2895 31.2237C28.3621 31.2237 28.4211 31.2826 28.4211 31.3553Z" fill="black"/>
<path d="M21.9737 28.9869C21.9737 29.0596 21.9148 29.1185 21.8421 29.1185C21.7694 29.1185 21.7105 29.0596 21.7105 28.9869C21.7105 28.9142 21.7694 28.8553 21.8421 28.8553C21.9148 28.8553 21.9737 28.9142 21.9737 28.9869Z" fill="black"/>
<path d="M26.8421 31.0922C26.8421 31.1648 26.7832 31.2237 26.7105 31.2237C26.6379 31.2237 26.579 31.1648 26.579 31.0922C26.579 31.0195 26.6379 30.9606 26.7105 30.9606C26.7832 30.9606 26.8421 31.0195 26.8421 31.0922Z" fill="black"/>
<path d="M26.8421 28.7237C26.8421 28.7964 26.7832 28.8553 26.7105 28.8553C26.6379 28.8553 26.579 28.7964 26.579 28.7237C26.579 28.6511 26.6379 28.5922 26.7105 28.5922C26.7832 28.5922 26.8421 28.6511 26.8421 28.7237Z" fill="black"/>
<path d="M31.4474 30.5658C31.4474 30.6385 31.3885 30.6974 31.3158 30.6974C31.2431 30.6974 31.1842 30.6385 31.1842 30.5658C31.1842 30.4932 31.2431 30.4343 31.3158 30.4343C31.3885 30.4343 31.4474 30.4932 31.4474 30.5658Z" fill="black"/>
<path d="M31.4474 28.1974C31.4474 28.2701 31.3885 28.329 31.3158 28.329C31.2431 28.329 31.1842 28.2701 31.1842 28.1974C31.1842 28.1247 31.2431 28.0658 31.3158 28.0658C31.3885 28.0658 31.4474 28.1247 31.4474 28.1974Z" fill="black"/>
<path d="M32.3684 28.4606C32.3684 28.5332 32.3095 28.5922 32.2368 28.5922C32.1642 28.5922 32.1053 28.5332 32.1053 28.4606C32.1053 28.3879 32.1642 28.329 32.2368 28.329C32.3095 28.329 32.3684 28.3879 32.3684 28.4606Z" fill="black"/>
<path d="M34.3421 27.2764C34.3421 27.349 34.2832 27.4079 34.2105 27.4079C34.1379 27.4079 34.079 27.349 34.079 27.2764C34.079 27.2037 34.1379 27.1448 34.2105 27.1448C34.2832 27.1448 34.3421 27.2037 34.3421 27.2764Z" fill="black"/>
<path d="M20.3947 33.4606C20.3947 33.5332 20.3358 33.5922 20.2632 33.5922C20.1905 33.5922 20.1316 33.5332 20.1316 33.4606C20.1316 33.3879 20.1905 33.329 20.2632 33.329C20.3358 33.329 20.3947 33.3879 20.3947 33.4606Z" stroke="black" stroke-width="0.131579"/>
<path d="M27.2368 34.3816C27.2368 34.4543 27.1779 34.5132 27.1053 34.5132C27.0326 34.5132 26.9737 34.4543 26.9737 34.3816C26.9737 34.309 27.0326 34.25 27.1053 34.25C27.1779 34.25 27.2368 34.309 27.2368 34.3816Z" stroke="black" stroke-width="0.131579"/>
<path d="M26.7105 35.3027C26.7105 35.3753 26.6516 35.4343 26.579 35.4343C26.5063 35.4343 26.4474 35.3753 26.4474 35.3027C26.4474 35.23 26.5063 35.1711 26.579 35.1711C26.6516 35.1711 26.7105 35.23 26.7105 35.3027Z" stroke="black" stroke-width="0.131579"/>
<path d="M29.3421 35.0395C29.3421 35.1122 29.2832 35.1711 29.2105 35.1711C29.1379 35.1711 29.079 35.1122 29.079 35.0395C29.079 34.9669 29.1379 34.9079 29.2105 34.9079C29.2832 34.9079 29.3421 34.9669 29.3421 35.0395Z" stroke="black" stroke-width="0.131579"/>
<path d="M29.4737 33.7237C29.4737 33.7964 29.4148 33.8553 29.3421 33.8553C29.2694 33.8553 29.2105 33.7964 29.2105 33.7237C29.2105 33.6511 29.2694 33.5922 29.3421 33.5922C29.4148 33.5922 29.4737 33.6511 29.4737 33.7237Z" stroke="black" stroke-width="0.131579"/>
<path d="M32.1053 34.3816C32.1053 34.4543 32.0464 34.5132 31.9737 34.5132C31.901 34.5132 31.8421 34.4543 31.8421 34.3816C31.8421 34.309 31.901 34.25 31.9737 34.25C32.0464 34.25 32.1053 34.309 32.1053 34.3816Z" stroke="black" stroke-width="0.131579"/>
<path d="M33.4211 32.5395C33.4211 32.6122 33.3621 32.6711 33.2895 32.6711C33.2168 32.6711 33.1579 32.6122 33.1579 32.5395C33.1579 32.4669 33.2168 32.4079 33.2895 32.4079C33.3621 32.4079 33.4211 32.4669 33.4211 32.5395Z" stroke="black" stroke-width="0.131579"/>
<path d="M19.079 30.6974C19.079 30.7701 19.02 30.829 18.9474 30.829C18.8747 30.829 18.8158 30.7701 18.8158 30.6974C18.8158 30.6247 18.8747 30.5658 18.9474 30.5658C19.02 30.5658 19.079 30.6247 19.079 30.6974Z" stroke="black" stroke-width="0.131579"/>
<path d="M23.4211 32.8027C23.4211 32.8753 23.3621 32.9343 23.2895 32.9343C23.2168 32.9343 23.1579 32.8753 23.1579 32.8027C23.1579 32.73 23.2168 32.6711 23.2895 32.6711C23.3621 32.6711 23.4211 32.73 23.4211 32.8027Z" stroke="black" stroke-width="0.131579"/>
<path d="M23.0263 35.4343C23.0263 35.5069 22.9674 35.5658 22.8947 35.5658C22.8221 35.5658 22.7632 35.5069 22.7632 35.4343C22.7632 35.3616 22.8221 35.3027 22.8947 35.3027C22.9674 35.3027 23.0263 35.3616 23.0263 35.4343Z" stroke="black" stroke-width="0.131579"/>
<path d="M25.3947 35.9606C25.3947 36.0332 25.3358 36.0922 25.2632 36.0922C25.1905 36.0922 25.1316 36.0332 25.1316 35.9606C25.1316 35.8879 25.1905 35.829 25.2632 35.829C25.3358 35.829 25.3947 35.8879 25.3947 35.9606Z" stroke="black" stroke-width="0.131579"/>
<path d="M29.8684 32.5395C29.8684 32.6122 29.8095 32.6711 29.7368 32.6711C29.6642 32.6711 29.6053 32.6122 29.6053 32.5395C29.6053 32.4669 29.6642 32.4079 29.7368 32.4079C29.8095 32.4079 29.8684 32.4669 29.8684 32.5395Z" stroke="black" stroke-width="0.131579"/>
<path d="M31.7105 33.0658C31.7105 33.1385 31.6516 33.1974 31.579 33.1974C31.5063 33.1974 31.4474 33.1385 31.4474 33.0658C31.4474 32.9932 31.5063 32.9343 31.579 32.9343C31.6516 32.9343 31.7105 32.9932 31.7105 33.0658Z" stroke="black" stroke-width="0.131579"/>
<path d="M30.6579 35.3027C30.6579 35.3753 30.599 35.4343 30.5263 35.4343C30.4537 35.4343 30.3947 35.3753 30.3947 35.3027C30.3947 35.23 30.4537 35.1711 30.5263 35.1711C30.599 35.1711 30.6579 35.23 30.6579 35.3027Z" stroke="black" stroke-width="0.131579"/>
<path d="M32.5 31.2237C32.5 31.2964 32.4411 31.3553 32.3684 31.3553C32.2958 31.3553 32.2368 31.2964 32.2368 31.2237C32.2368 31.1511 32.2958 31.0922 32.3684 31.0922C32.4411 31.0922 32.5 31.1511 32.5 31.2237Z" stroke="black" stroke-width="0.131579"/>
<path d="M20.2632 31.4869C20.2632 31.5596 20.2043 31.6185 20.1316 31.6185C20.0589 31.6185 20 31.5596 20 31.4869C20 31.4142 20.0589 31.3553 20.1316 31.3553C20.2043 31.3553 20.2632 31.4142 20.2632 31.4869Z" stroke="black" stroke-width="0.131579"/>
<path d="M23.4211 31.4869C23.4211 31.5596 23.3621 31.6185 23.2895 31.6185C23.2168 31.6185 23.1579 31.5596 23.1579 31.4869C23.1579 31.4142 23.2168 31.3553 23.2895 31.3553C23.3621 31.3553 23.4211 31.4142 23.4211 31.4869Z" stroke="black" stroke-width="0.131579"/>
<path d="M23.4211 29.1185C23.4211 29.1911 23.3621 29.25 23.2895 29.25C23.2168 29.25 23.1579 29.1911 23.1579 29.1185C23.1579 29.0458 23.2168 28.9869 23.2895 28.9869C23.3621 28.9869 23.4211 29.0458 23.4211 29.1185Z" stroke="black" stroke-width="0.131579"/>
<path d="M23.9474 36.2237C23.9474 36.2964 23.8885 36.3553 23.8158 36.3553C23.7431 36.3553 23.6842 36.2964 23.6842 36.2237C23.6842 36.1511 23.7431 36.0922 23.8158 36.0922C23.8885 36.0922 23.9474 36.1511 23.9474 36.2237Z" stroke="black" stroke-width="0.131579"/>
<path d="M27.5 36.2237C27.5 36.2964 27.4411 36.3553 27.3684 36.3553C27.2958 36.3553 27.2368 36.2964 27.2368 36.2237C27.2368 36.1511 27.2958 36.0922 27.3684 36.0922C27.4411 36.0922 27.5 36.1511 27.5 36.2237Z" stroke="black" stroke-width="0.131579"/>
<path d="M28.9474 36.2237C28.9474 36.2964 28.8885 36.3553 28.8158 36.3553C28.7431 36.3553 28.6842 36.2964 28.6842 36.2237C28.6842 36.1511 28.7431 36.0922 28.8158 36.0922C28.8885 36.0922 28.9474 36.1511 28.9474 36.2237Z" stroke="black" stroke-width="0.131579"/>
<path d="M31.1842 31.4869C31.1842 31.5596 31.1253 31.6185 31.0526 31.6185C30.98 31.6185 30.9211 31.5596 30.9211 31.4869C30.9211 31.4142 30.98 31.3553 31.0526 31.3553C31.1253 31.3553 31.1842 31.4142 31.1842 31.4869Z" stroke="black" stroke-width="0.131579"/>
<path d="M31.1842 29.1185C31.1842 29.1911 31.1253 29.25 31.0526 29.25C30.98 29.25 30.9211 29.1911 30.9211 29.1185C30.9211 29.0458 30.98 28.9869 31.0526 28.9869C31.1253 28.9869 31.1842 29.0458 31.1842 29.1185Z" stroke="black" stroke-width="0.131579"/>
<path d="M33.8158 30.829C33.8158 30.9017 33.7569 30.9606 33.6842 30.9606C33.6115 30.9606 33.5526 30.9017 33.5526 30.829C33.5526 30.7563 33.6115 30.6974 33.6842 30.6974C33.7569 30.6974 33.8158 30.7563 33.8158 30.829Z" stroke="black" stroke-width="0.131579"/>
<path d="M20.6579 29.7764C20.6579 29.849 20.599 29.9079 20.5263 29.9079C20.4537 29.9079 20.3947 29.849 20.3947 29.7764C20.3947 29.7037 20.4537 29.6448 20.5263 29.6448C20.599 29.6448 20.6579 29.7037 20.6579 29.7764Z" stroke="black" stroke-width="0.131579"/>
<path d="M21.9737 34.3816C21.9737 34.4543 21.9148 34.5132 21.8421 34.5132C21.7694 34.5132 21.7105 34.4543 21.7105 34.3816C21.7105 34.309 21.7694 34.25 21.8421 34.25C21.9148 34.25 21.9737 34.309 21.9737 34.3816Z" stroke="black" stroke-width="0.131579"/>
<path d="M21.4474 35.3027C21.4474 35.3753 21.3885 35.4343 21.3158 35.4343C21.2431 35.4343 21.1842 35.3753 21.1842 35.3027C21.1842 35.23 21.2431 35.1711 21.3158 35.1711C21.3885 35.1711 21.4474 35.23 21.4474 35.3027Z" stroke="black" stroke-width="0.131579"/>
<path d="M26.7105 32.6711C26.7105 32.7438 26.6516 32.8027 26.579 32.8027C26.5063 32.8027 26.4474 32.7438 26.4474 32.6711C26.4474 32.5984 26.5063 32.5395 26.579 32.5395C26.6516 32.5395 26.7105 32.5984 26.7105 32.6711Z" stroke="black" stroke-width="0.131579"/>
<path d="M28.2895 32.9343C28.2895 33.0069 28.2306 33.0658 28.1579 33.0658C28.0852 33.0658 28.0263 33.0069 28.0263 32.9343C28.0263 32.8616 28.0852 32.8027 28.1579 32.8027C28.2306 32.8027 28.2895 32.8616 28.2895 32.9343Z" stroke="black" stroke-width="0.131579"/>
<path d="M26.4474 36.8816C26.4474 36.9543 26.3885 37.0132 26.3158 37.0132C26.2431 37.0132 26.1842 36.9543 26.1842 36.8816C26.1842 36.809 26.2431 36.75 26.3158 36.75C26.3885 36.75 26.4474 36.809 26.4474 36.8816Z" stroke="black" stroke-width="0.131579"/>
<path d="M29.4737 30.1711C29.4737 30.2438 29.4148 30.3027 29.3421 30.3027C29.2694 30.3027 29.2105 30.2438 29.2105 30.1711C29.2105 30.0984 29.2694 30.0395 29.3421 30.0395C29.4148 30.0395 29.4737 30.0984 29.4737 30.1711Z" stroke="black" stroke-width="0.131579"/>
<path d="M29.4737 27.8027C29.4737 27.8753 29.4148 27.9343 29.3421 27.9343C29.2694 27.9343 29.2105 27.8753 29.2105 27.8027C29.2105 27.73 29.2694 27.6711 29.3421 27.6711C29.4148 27.6711 29.4737 27.73 29.4737 27.8027Z" stroke="black" stroke-width="0.131579"/>
<path d="M32.6316 29.7764C32.6316 29.849 32.5727 29.9079 32.5 29.9079C32.4273 29.9079 32.3684 29.849 32.3684 29.7764C32.3684 29.7037 32.4273 29.6448 32.5 29.6448C32.5727 29.6448 32.6316 29.7037 32.6316 29.7764Z" stroke="black" stroke-width="0.131579"/>
<path d="M33.5526 28.4606C33.5526 28.5332 33.4937 28.5922 33.4211 28.5922C33.3484 28.5922 33.2895 28.5332 33.2895 28.4606C33.2895 28.3879 33.3484 28.329 33.4211 28.329C33.4937 28.329 33.5526 28.3879 33.5526 28.4606Z" stroke="black" stroke-width="0.131579"/>
<path d="M21.8421 30.9606C21.8421 31.0332 21.7832 31.0922 21.7105 31.0922C21.6379 31.0922 21.579 31.0332 21.579 30.9606C21.579 30.8879 21.6379 30.829 21.7105 30.829C21.7832 30.829 21.8421 30.8879 21.8421 30.9606Z" stroke="black" stroke-width="0.131579"/>
<path d="M21.8421 32.4079C21.8421 32.4806 21.7832 32.5395 21.7105 32.5395C21.6379 32.5395 21.579 32.4806 21.579 32.4079C21.579 32.3353 21.6379 32.2764 21.7105 32.2764C21.7832 32.2764 21.8421 32.3353 21.8421 32.4079Z" stroke="black" stroke-width="0.131579"/>
<path d="M24.6053 30.4343C24.6053 30.5069 24.5464 30.5658 24.4737 30.5658C24.401 30.5658 24.3421 30.5069 24.3421 30.4343C24.3421 30.3616 24.401 30.3027 24.4737 30.3027C24.5464 30.3027 24.6053 30.3616 24.6053 30.4343Z" stroke="black" stroke-width="0.131579"/>
<path d="M24.6053 28.0658C24.6053 28.1385 24.5464 28.1974 24.4737 28.1974C24.401 28.1974 24.3421 28.1385 24.3421 28.0658C24.3421 27.9932 24.401 27.9343 24.4737 27.9343C24.5464 27.9343 24.6053 27.9932 24.6053 28.0658Z" stroke="black" stroke-width="0.131579"/>
<path d="M26.1842 29.9079C26.1842 29.9806 26.1253 30.0395 26.0526 30.0395C25.98 30.0395 25.9211 29.9806 25.9211 29.9079C25.9211 29.8353 25.98 29.7764 26.0526 29.7764C26.1253 29.7764 26.1842 29.8353 26.1842 29.9079Z" stroke="black" stroke-width="0.131579"/>
<path d="M27.7632 29.1185C27.7632 29.1911 27.7043 29.25 27.6316 29.25C27.5589 29.25 27.5 29.1911 27.5 29.1185C27.5 29.0458 27.5589 28.9869 27.6316 28.9869C27.7043 28.9869 27.7632 29.0458 27.7632 29.1185Z" stroke="black" stroke-width="0.131579"/>
<path d="M29.4737 29.1185C29.4737 29.1911 29.4148 29.25 29.3421 29.25C29.2694 29.25 29.2105 29.1911 29.2105 29.1185C29.2105 29.0458 29.2694 28.9869 29.3421 28.9869C29.4148 28.9869 29.4737 29.0458 29.4737 29.1185Z" stroke="black" stroke-width="0.131579"/>
<path d="M31.1842 29.1185C31.1842 29.1911 31.1253 29.25 31.0526 29.25C30.98 29.25 30.9211 29.1911 30.9211 29.1185C30.9211 29.0458 30.98 28.9869 31.0526 28.9869C31.1253 28.9869 31.1842 29.0458 31.1842 29.1185Z" stroke="black" stroke-width="0.131579"/>
<path d="M34.6053 29.1185C34.6053 29.1911 34.5464 29.25 34.4737 29.25C34.401 29.25 34.3421 29.1911 34.3421 29.1185C34.3421 29.0458 34.401 28.9869 34.4737 28.9869C34.5464 28.9869 34.6053 29.0458 34.6053 29.1185Z" stroke="black" stroke-width="0.131579"/>
<path d="M24.3421 34.3816C24.3421 34.4543 24.2832 34.5132 24.2105 34.5132C24.1379 34.5132 24.079 34.4543 24.079 34.3816C24.079 34.309 24.1379 34.25 24.2105 34.25C24.2832 34.25 24.3421 34.309 24.3421 34.3816Z" stroke="black" stroke-width="0.131579"/>
<path d="M25.7895 33.5922C25.7895 33.6648 25.7306 33.7237 25.6579 33.7237C25.5852 33.7237 25.5263 33.6648 25.5263 33.5922C25.5263 33.5195 25.5852 33.4606 25.6579 33.4606C25.7306 33.4606 25.7895 33.5195 25.7895 33.5922Z" stroke="black" stroke-width="0.131579"/>
<path d="M25.2632 32.5395C25.2632 32.6122 25.2043 32.6711 25.1316 32.6711C25.0589 32.6711 25 32.6122 25 32.5395C25 32.4669 25.0589 32.4079 25.1316 32.4079C25.2043 32.4079 25.2632 32.4669 25.2632 32.5395Z" stroke="black" stroke-width="0.131579"/>
<path d="M28.4211 31.3553C28.4211 31.428 28.3621 31.4869 28.2895 31.4869C28.2168 31.4869 28.1579 31.428 28.1579 31.3553C28.1579 31.2826 28.2168 31.2237 28.2895 31.2237C28.3621 31.2237 28.4211 31.2826 28.4211 31.3553Z" stroke="black" stroke-width="0.131579"/>
<path d="M21.9737 28.9869C21.9737 29.0596 21.9148 29.1185 21.8421 29.1185C21.7694 29.1185 21.7105 29.0596 21.7105 28.9869C21.7105 28.9142 21.7694 28.8553 21.8421 28.8553C21.9148 28.8553 21.9737 28.9142 21.9737 28.9869Z" stroke="black" stroke-width="0.131579"/>
<path d="M26.8421 31.0922C26.8421 31.1648 26.7832 31.2237 26.7105 31.2237C26.6379 31.2237 26.579 31.1648 26.579 31.0922C26.579 31.0195 26.6379 30.9606 26.7105 30.9606C26.7832 30.9606 26.8421 31.0195 26.8421 31.0922Z" stroke="black" stroke-width="0.131579"/>
<path d="M26.8421 28.7237C26.8421 28.7964 26.7832 28.8553 26.7105 28.8553C26.6379 28.8553 26.579 28.7964 26.579 28.7237C26.579 28.6511 26.6379 28.5922 26.7105 28.5922C26.7832 28.5922 26.8421 28.6511 26.8421 28.7237Z" stroke="black" stroke-width="0.131579"/>
<path d="M31.4474 30.5658C31.4474 30.6385 31.3885 30.6974 31.3158 30.6974C31.2431 30.6974 31.1842 30.6385 31.1842 30.5658C31.1842 30.4932 31.2431 30.4343 31.3158 30.4343C31.3885 30.4343 31.4474 30.4932 31.4474 30.5658Z" stroke="black" stroke-width="0.131579"/>
<path d="M31.4474 28.1974C31.4474 28.2701 31.3885 28.329 31.3158 28.329C31.2431 28.329 31.1842 28.2701 31.1842 28.1974C31.1842 28.1247 31.2431 28.0658 31.3158 28.0658C31.3885 28.0658 31.4474 28.1247 31.4474 28.1974Z" stroke="black" stroke-width="0.131579"/>
<path d="M32.3684 28.4606C32.3684 28.5332 32.3095 28.5922 32.2368 28.5922C32.1642 28.5922 32.1053 28.5332 32.1053 28.4606C32.1053 28.3879 32.1642 28.329 32.2368 28.329C32.3095 28.329 32.3684 28.3879 32.3684 28.4606Z" stroke="black" stroke-width="0.131579"/>
<path d="M34.3421 27.2764C34.3421 27.349 34.2832 27.4079 34.2105 27.4079C34.1379 27.4079 34.079 27.349 34.079 27.2764C34.079 27.2037 34.1379 27.1448 34.2105 27.1448C34.2832 27.1448 34.3421 27.2037 34.3421 27.2764Z" stroke="black" stroke-width="0.131579"/>
</g>
<rect x="22.7958" y="29.0093" width="9.21053" height="3.15789" rx="0.526316" transform="rotate(-4 22.7958 29.0093)" fill="black"/>
<path d="M31.0492 29.371C31.0047 29.7476 30.6979 30.0397 30.3196 30.0662C30.698 30.0397 31.0424 30.2862 31.1389 30.653L31.3805 31.5749L23.8394 32.1023L23.9504 31.1557C23.9948 30.7792 24.301 30.4874 24.6791 30.4606C24.301 30.4867 23.9572 30.2402 23.8607 29.8737L23.6191 28.9518L31.1602 28.4244L31.0492 29.371Z" fill="white"/>
<path d="M31.3267 28.2434C31.7981 28.1424 32.2556 28.4803 32.2895 28.9651L32.4236 30.8823C32.4573 31.3671 32.0514 31.7653 31.5705 31.731C30.6385 31.6639 28.8598 31.5623 27.5972 31.6505C26.3347 31.7388 24.5875 32.0871 23.6738 32.2832C23.2023 32.3844 22.745 32.0463 22.711 31.5615L22.5769 29.6443C22.543 29.1593 22.9488 28.761 23.4299 28.7956C24.362 28.8627 26.1406 28.9634 27.4032 28.8751C28.6657 28.7868 30.413 28.4396 31.3267 28.2434Z" stroke="black" stroke-width="0.526316"/>
<path d="M19.3421 19.5395C20.1535 19.8685 22.1184 19.9342 23.4868 17.5658" stroke="black" stroke-width="0.526316" stroke-linecap="round"/>
<path d="M28.1579 16.579C28.8377 17.2807 30.5395 18.2632 31.9079 16.579" stroke="black" stroke-width="0.526316" stroke-linecap="round"/>
<path d="M26.1843 11.4473C28.1141 11.3596 31.5001 10.2895 29.6053 6.7105" stroke="black" stroke-width="0.526316"/>
<path d="M22.7632 11.1842C24.693 11.0965 28.079 10.0263 26.1842 6.44735" stroke="black" stroke-width="0.526316"/>
<path d="M18.0264 12.6316C19.9562 12.5438 23.3422 11.4737 21.4474 7.89471" stroke="black" stroke-width="0.526316"/>
<ellipse cx="22.175" cy="22.1583" rx="1.18421" ry="1.77632" transform="rotate(-6.77646 22.175 22.1583)" fill="black"/>
<ellipse cx="30.5961" cy="20.8425" rx="1.18421" ry="1.77632" transform="rotate(-6.27568 30.5961 20.8425)" fill="black"/>
<path d="M18.9499 22.1992L14.6053 22.9727" stroke="black" stroke-width="0.526316" stroke-linecap="round"/>
<path d="M19.1371 19.4216L23.9063 18.8002C24.3385 18.744 24.7418 19.0484 24.8072 19.4793L25.4731 23.8725C25.5384 24.3035 25.2412 24.6991 24.809 24.7556L20.5472 25.3109C20.1498 25.3625 19.7701 25.1087 19.6648 24.7209L18.4913 20.3929C18.3679 19.9367 18.6695 19.4827 19.1371 19.4216Z" stroke="black" stroke-width="0.526316"/>
<path d="M32.9247 17.6491L28.1554 18.2706C27.7233 18.3271 27.4261 18.7227 27.4914 19.1537L28.1573 23.5468C28.2226 23.9778 28.6259 24.2821 29.0582 24.226L33.32 23.6707C33.7174 23.6186 34.0069 23.2776 33.9928 22.878L33.8342 18.4177C33.8172 17.9476 33.3923 17.5883 32.9247 17.6491Z" stroke="black" stroke-width="0.526316"/>
<path d="M25.1204 21.5716L27.8909 21.1629" stroke="black" stroke-width="0.526316"/>
<path d="M26.6746 22.6288C26.931 24.453 28.0445 25.758 28.0445 25.758C28.0445 25.758 27.6984 26.6039 26.3588 26.5265" stroke="black" stroke-width="0.526316"/>
<path d="M16.3816 23.7073C16.075 23.6064 15.7441 23.5526 15.4053 23.5526C14.0246 23.5526 12.9053 24.4079 13.0369 25.9869C13.1739 27.6316 14.1562 28.2237 15.5369 28.2237C15.6905 28.2237 15.8409 28.2102 15.9869 28.1844C16.1462 28.1562 16.3002 28.1133 16.4474 28.0572" stroke="black" stroke-width="1.05263"/>
<path d="M16.5132 28.0311C16.2133 28.1551 15.8833 28.2237 15.5369 28.2237C14.1562 28.2237 13.1739 27.6316 13.0369 25.9869C12.9053 24.4079 14.0246 23.5526 15.4053 23.5526C15.8181 23.5526 16.2194 23.6324 16.579 23.7802L16.5132 28.0311Z" fill="#F9C9B6"/>
<path d="M15.9869 24.6711C15.4606 24.4299 14.3027 24.3027 13.8817 25.7238" stroke="black" stroke-width="0.526316"/>
<path d="M14.6053 24.7368C14.8904 24.9781 15.4342 25.7237 15.329 26.7763" stroke="black" stroke-width="0.526316"/>
<path d="M24.2109 42.2285C25.4548 42.2286 26.4231 42.4186 27.3417 42.669C28.2453 42.9153 29.1612 43.241 30.204 43.4805L30.2226 43.4844L30.2411 43.4864C36.3098 43.9869 39.9486 46.6825 42.5898 50.3946H6.62885C8.77345 46.5342 11.8234 44.0769 16.7685 42.9492C18.8755 42.4688 21.331 42.2285 24.2109 42.2285Z" fill="#F4D150" stroke="black" stroke-width="0.526316"/>
<path d="M15.2539 43.2345L16.4582 40.6559C16.487 40.5943 16.5585 40.565 16.6226 40.5877C21.6129 42.3542 26.1527 42.2298 30.3599 41.0586C30.4128 41.0439 30.4694 41.0634 30.5018 41.1078L32.335 43.6147C32.3854 43.6836 32.3598 43.7808 32.2803 43.812C27.8583 45.5483 19.5608 45.2532 15.3176 43.4085C15.2503 43.3793 15.2228 43.301 15.2539 43.2345Z" fill="white" stroke="black" stroke-width="0.526316"/>
</g>
<defs>
<clipPath id="clip0_2_199">
<rect width="26.3158" height="42.1053" fill="white" transform="translate(11.8421 5.65794)"/>
</clipPath>
</defs>
</svg>
